<svg xmlns="http://www.w3.org/2000/svg" viewBox="0 0 323.87 319.95">
  <defs>
    <style>
      .cls-1, .cls-10, .cls-11, .cls-12, .cls-13, .cls-14, .cls-15, .cls-16, .cls-2, .cls-3, .cls-4, .cls-5, .cls-6, .cls-7, .cls-8, .cls-9 {
        fill: none;
      }

      .cls-1, .cls-10, .cls-11, .cls-12, .cls-13, .cls-14, .cls-15, .cls-2, .cls-3, .cls-4, .cls-5, .cls-6, .cls-7, .cls-8, .cls-9 {
        stroke: #000;
      }

      .cls-1, .cls-10, .cls-11, .cls-12, .cls-15, .cls-3, .cls-4, .cls-5, .cls-6, .cls-7, .cls-8, .cls-9 {
        stroke-linecap: round;
        stroke-linejoin: round;
      }

      .cls-13, .cls-14, .cls-2 {
        stroke-miterlimit: 10;
      }

      .cls-3 {
        stroke-width: 0.84px;
      }

      .cls-4 {
        stroke-width: 1px;
      }

      .cls-5 {
        stroke-width: 1.18px;
      }

      .cls-6 {
        stroke-width: 0.93px;
      }

      .cls-7 {
        stroke-width: 1.1px;
      }

      .cls-8 {
        stroke-width: 1.15px;
      }

      .cls-9 {
        stroke-width: 0.71px;
      }

      .cls-10 {
        stroke-width: 1.35px;
      }

      .cls-11 {
        stroke-width: 1.24px;
      }

      .cls-12 {
        stroke-width: 0.91px;
      }

      .cls-13 {
        stroke-width: 0.9px;
      }

      .cls-14 {
        stroke-width: 0.9px;
      }

      .cls-15 {
        stroke-width: 1.63px;
      }
    </style>
  </defs>
  <title>Asset 1</title>
  <g id="Layer_2" data-name="Layer 2">
    <g id="shading">
      <g>
        <rect class="cls-1" x="134.05" y="71.23" width="147.71" height="96.43" rx="10.53" ry="10.53"/>
        <rect class="cls-1" x="194.54" y="151.69" width="27.02" height="3.38"/>
        <rect class="cls-1" x="194.54" y="148.31" width="27.02" height="3.38"/>
        <circle class="cls-2" cx="173.25" cy="113.82" r="21.29"/>
        <circle class="cls-2" cx="246.95" cy="113.82" r="21.29"/>
        <ellipse class="cls-2" cx="300.3" cy="112.08" rx="3.57" ry="21.19"/>
        <path class="cls-1" d="M140.46,71.91s11.4-5.18,16.72-5.59H281.76s12.9-1.69,13.67,12.51l.38,12.05h-7.37s-7.45,22.57,2.07,43.84h4.76l-.15,20.73s-2.55,10.52-19.75,11.36"/>
        <line class="cls-1" x1="295.81" y1="90.89" x2="299.8" y2="91.09"/>
        <line class="cls-1" x1="295.27" y1="134.72" x2="300.3" y2="133.27"/>
        <polygon class="cls-2" points="316.77 9.51 302.33 108.39 303.49 108.39 317.89 9.51 316.77 9.51"/>
        <polygon class="cls-2" points="127.53 9.07 128.46 109 129.6 108.82 128.65 8.9 127.53 9.07"/>
        <path class="cls-2" d="M134,90h-2.66s-8.7,16.89-.49,40.31H134"/>
        <circle class="cls-1" cx="127.98" cy="5.18" r="4.68"/>
        <circle class="cls-1" cx="318.69" cy="6.05" r="4.68"/>
        <path class="cls-1" d="M193.16,167.66s.31,4,1.38,5.37h39.77s1.38-4,1.23-5.37"/>
        <path class="cls-1" d="M198.13,173s-3.89,28.1-1.94,35.06h8.91S205.5,175,207.34,173"/>
        <path class="cls-1" d="M195.64,203.38s-18.25,3.58,0,7.27c0,0,27.77,1.33,33.3,0s20.88-4.09,4.2-5.94"/>
        <path class="cls-1" d="M187.52,207.31v11.48s27.15,8,53.17,0l-.1-12.27"/>
        <path class="cls-1" d="M219.21,173s-2.15,31.48-.82,35.06h9.52s-.31-33.27,2.56-35.06h1.43V181"/>
        <path class="cls-1" d="M232.83,193.66s.61,12.06,0,13.65l-4.91.78"/>
        <path class="cls-1" d="M230,193.15h5.59c.88-3.79,0-11.67,0-11.67h-5S229.5,184.13,230,193.15Z"/>
        <polyline class="cls-1" points="205.42 208.09 211.23 203.38 211.23 198.06 206.32 198.06 207.85 195.91"/>
        <line class="cls-1" x1="217.96" y1="198.06" x2="211.23" y2="198.06"/>
        <line class="cls-1" x1="218" y1="203.08" x2="211.23" y2="203.38"/>
        <path class="cls-1" d="M243.51,214.43l40,4.48s13.56.33,14.28,13l0,16"/>
        <ellipse class="cls-3" cx="24.91" cy="55" rx="4.17" ry="1.07" transform="translate(-8.27 4.56) rotate(-8.97)"/>
        <path class="cls-1" d="M20.72,55.23l3.2,20.43s6.63,1.63,8.75-1.5L29,53.93"/>
        <ellipse class="cls-3" cx="30.26" cy="83.15" rx="4.17" ry="1.07" transform="translate(-12.59 5.73) rotate(-8.97)"/>
        <path class="cls-1" d="M26.08,83.38l3.2,20.43s6.62,1.63,8.75-1.5L34.31,82.08"/>
        <polygon class="cls-1" points="27.03 76.6 27.18 77.63 27.8 81.72 25.28 82.35 24.28 76.6 27.03 76.6"/>
        <line class="cls-1" x1="30.03" y1="77.22" x2="27.18" y2="77.63"/>
        <line class="cls-1" x1="30.03" y1="79.97" x2="27.62" y2="80.48"/>
        <polygon class="cls-1" points="30.65 81.47 30.03 76.22 34.4 75.65 35.15 80.48 30.65 81.47"/>
        <polygon class="cls-1" points="32.23 104.54 32.39 105.57 33.01 109.66 30.48 110.29 29.48 104.54 32.23 104.54"/>
        <line class="cls-1" x1="35.23" y1="105.16" x2="32.39" y2="105.57"/>
        <line class="cls-1" x1="35.23" y1="107.91" x2="32.82" y2="108.42"/>
        <polygon class="cls-1" points="35.86 109.41 35.23 104.16 39.61 103.59 40.36 108.42 35.86 109.41"/>
        <polygon class="cls-1" points="3.25 112.22 3.41 113.25 4.03 117.34 1.5 117.97 0.5 112.22 3.25 112.22"/>
        <line class="cls-1" x1="6.25" y1="112.84" x2="3.41" y2="113.25"/>
        <line class="cls-1" x1="6.25" y1="115.59" x2="3.84" y2="116.1"/>
        <polygon class="cls-1" points="6.88 117.09 6.25 111.84 10.63 111.27 11.38 116.1 6.88 117.09"/>
        <polygon class="cls-1" points="17.05 108.87 17.2 109.9 17.82 113.99 15.3 114.62 14.3 108.87 17.05 108.87"/>
        <line class="cls-1" x1="20.05" y1="109.49" x2="17.2" y2="109.9"/>
        <line class="cls-1" x1="20.05" y1="112.24" x2="17.63" y2="112.75"/>
        <polygon class="cls-1" points="20.67 113.74 20.05 108.49 24.42 107.91 25.17 112.75 20.67 113.74"/>
        <polygon class="cls-1" points="59.86 138.34 58.83 138.47 54.72 138.96 54.17 136.42 59.95 135.59 59.86 138.34"/>
        <line class="cls-1" x1="59.14" y1="141.32" x2="58.82" y2="138.47"/>
        <line class="cls-1" x1="56.4" y1="141.24" x2="55.96" y2="138.81"/>
        <polygon class="cls-1" points="54.88 141.82 60.15 141.35 60.59 145.74 55.73 146.34 54.88 141.82"/>
        <ellipse class="cls-3" cx="34.08" cy="147.67" rx="1.07" ry="4.17" transform="translate(-23.78 7.6) rotate(-9.45)"/>
        <path class="cls-1" d="M34.34,151.85l20.41-3.37s1.57-6.64-1.57-8.74L33,143.63"/>
        <path class="cls-4" d="M6.13,147.51c-.07-.82,1.72-1.81,4-2.2s4.19,0,4.27.78-1.72,1.81-4,2.2S6.21,148.33,6.13,147.51Z"/>
        <path class="cls-5" d="M14.46,146.68,12,117.87s-6.57-2.6-8.8,1.68l3,28.55"/>
        <path class="cls-6" d="M21.12,140c-.14-.7,1.57-1.66,3.81-2.15s4.18-.3,4.32.4-1.57,1.66-3.81,2.15S21.26,140.69,21.12,140Z"/>
        <path class="cls-7" d="M29.35,138.76,24.5,114.17s-6.76-1.82-8.63,2l5.35,24.33"/>
        <path class="cls-1" d="M2.26,121.16l-1.76,1,5.75,35.75s5.42,8,13.8,5.25l16.37-2.75s9.75-6.32,10-10.41"/>
        <polyline class="cls-1" points="46.42 140.02 40.36 110.12 25.17 112.75"/>
        <line class="cls-1" x1="15.3" y1="114.62" x2="11.38" y2="116.1"/>
        <rect class="cls-1" x="15.3" y="165.41" width="5.81" height="11.67" transform="translate(-21.75 3.73) rotate(-7.35)"/>
        <rect class="cls-1" x="41.15" y="162.14" width="5.81" height="11.67" transform="translate(-21.12 7.01) rotate(-7.35)"/>
        <rect class="cls-8" x="22.03" y="163.5" width="5.81" height="15.38" transform="translate(-21.69 4.59) rotate(-7.35)"/>
        <rect class="cls-8" x="34.69" y="161.12" width="5.81" height="15.38" transform="translate(-21.28 6.19) rotate(-7.35)"/>
        <rect class="cls-9" x="28.49" y="166.7" width="5.81" height="5.81" transform="translate(-21.43 5.41) rotate(-7.35)"/>
        <path class="cls-1" d="M235.55,181.48s-2.12,2.74,0,11.67"/>
        <path class="cls-1" d="M24.59,179.75l1.25,8.83s13.58.83,17.42-2.25l-1.79-10.26S39.59,177.41,24.59,179.75Z"/>
        <path class="cls-1" d="M24.93,188.33s-1.76,1.67-1.6,2.25,17.25,3.58,24.33-4.25a4.49,4.49,0,0,0-3.62-.75"/>
        <path class="cls-1" d="M23.34,190.58l1.6,12.58s20.11,2.75,25.24-5.25l-2.5-11.58"/>
        <path class="cls-10" d="M34.43,255.31s-2.13,2.53-1.93,3.41,20.83,5.44,29.39-6.45a4.67,4.67,0,0,0-4.37-1.14"/>
        <path class="cls-10" d="M32.5,258.72l1.93,19.09s24.29,4.17,30.48-8l-3-17.58"/>
        <path class="cls-1" d="M47.67,201.29l9.25,48.88s-.72,7-21.42,5.63l-9.2-52.17"/>
        <path class="cls-10" d="M38.51,278.51s-3,13.41,5.5,18.74h2s-5.62-1.81-4.4-18.74"/>
        <path class="cls-10" d="M61.89,274.58s3.09,2.5,3,5H59.34l-6.17,7.17,2.67,7,6.06,3.5s-8.39,4.33-15.89,0"/>
        <path class="cls-10" d="M52.59,277.69s-3.64,7.63,3.64,21.26"/>
        <polygon class="cls-10" points="60.84 281.58 57.84 286.88 59.34 294.25 64.91 294.25 68.17 288.32 65.84 281.58 60.84 281.58"/>
        <path class="cls-10" d="M63,297.25s4.5-2.33,5.17-4.17"/>
        <path class="cls-10" d="M64.52,267.58l3.65-1.16s12.83,7.26,8.5,21.46l-9.17,7s7.67-15-4.5-22.35"/>
        <line class="cls-10" x1="57.84" y1="286.87" x2="53.17" y2="286.75"/>
        <line class="cls-10" x1="60.84" y1="281.58" x2="59.34" y2="279.58"/>
        <line class="cls-10" x1="65.84" y1="281.58" x2="64.26" y2="279.58"/>
        <path class="cls-10" d="M69,266.41l37-19.5s14.83-2.38,11,18.48L76.95,286.87"/>
        <path class="cls-10" d="M102.84,246.83s1-4.58,6.83-3.08,15,7,10.67,22.67c0,0-.17,2-5.67,1.33"/>
        <path class="cls-10" d="M107.34,242.41l17.5-8.17s6.17.33,8,4.83l-.67,21.23-11.83,6.1"/>
        <path class="cls-10" d="M136.06,319.27c-.75-8.3-5.19-60.33-2-99,0,0,2.62-5.66,12.45-4.33s85.41,11.17,85.41,11.17,9.43.16,9.59,10.33c.15,8.77,3.14,55.32-.85,81.86"/>
        <line class="cls-10" x1="187.52" y1="209.66" x2="140.19" y2="215.71"/>
        <line class="cls-10" x1="242.72" y1="229.16" x2="291.92" y2="225.04"/>
        <path class="cls-10" d="M293.17,246.83s-15-32.08-31.67,3.5c-2.33,20.25-1.33,33.74,15.83,38"/>
        <path class="cls-10" d="M277.34,233.25l-8.29-.46s-5.37-.87-17.75,15.88a46.68,46.68,0,0,0,0,22.5s5.88,20.7,26.38,19.2"/>
        <path class="cls-10" d="M277.67,280v26.75s24.13,3.13,27.88-2.12l-.62-25.87S290.42,284.54,277.67,280Z"/>
        <path class="cls-10" d="M280.42,247.91s12.63.25,15.38,11.5,0,17,0,17-2.62,4.13-12.87,1.63-12.27-13-12.27-13S271,248.79,280.42,247.91Z"/>
        <ellipse class="cls-11" cx="277.34" cy="265.66" rx="4.08" ry="6.25"/>
        <path class="cls-11" d="M279.76,271.91h2s4.25-6.17-.33-12.5h-3.25"/>
        <path class="cls-11" d="M303.42,319.27H281.15l-.27-11.11,0-1,.3,0,.26,0,.2,0h.08c3.5.35,17,1.53,21.39-.89Z"/>
        <path class="cls-11" d="M285.8,247.91s7.75-2.5,14.13,2.25,5.63,10.78,5.63,10.78.92,10.4-4.12,12c0,0,3.25-15.19-1.5-19.69a12.07,12.07,0,0,0-10.12-3.37Z"/>
        <path class="cls-11" d="M293.17,252.27s10-2.86,7.13,23.39l-2.51,2s2.71-18.28-3.45-22"/>
        <line class="cls-11" x1="297.81" y1="277" x2="294.22" y2="277.69"/>
        <line class="cls-10" x1="41.18" y1="114.18" x2="24.93" y2="117.09"/>
        <line class="cls-10" x1="15.87" y1="119.45" x2="12.25" y2="121.16"/>
        <line class="cls-10" x1="3.41" y1="125.07" x2="0.97" y2="125.07"/>
        <line class="cls-2" x1="207.34" y1="173.75" x2="207.9" y2="198.06"/>
        <path class="cls-1" d="M276.88,262.41s-1.2,1.75-.83,6.5"/>
        <path class="cls-1" d="M274.3,264.94s-.37,2.35,4.88,1.85"/>
        <polygon class="cls-1" points="137.55 231.17 222.17 242.29 221.17 303.91 137.55 289.91 137.55 231.17"/>
        <polyline class="cls-1" points="138.17 230.16 142.3 229.16 225.55 241.04 224.42 301.16 221.17 303.91"/>
        <line class="cls-1" x1="223.3" y1="241.66" x2="225.55" y2="241.04"/>
        <path class="cls-1" d="M138.17,222.34l89.74,11.91s5.45-.58,5,7.42-1,64.67-1,64.67-.49,7.58-9.74,5.33l-86-14.42"/>
        <line class="cls-1" x1="136.17" y1="232.78" x2="136.17" y2="287.88"/>
        <ellipse class="cls-12" cx="227.48" cy="238.85" rx="3.09" ry="3.72"/>
        <path class="cls-1" d="M226.86,236.63s-.86,3.5,0,4.25"/>
        <path class="cls-1" d="M224.39,238.76a5.42,5.42,0,0,0,4.19.09"/>
        <ellipse class="cls-12" cx="137.55" cy="293.08" rx="3.09" ry="3.72"/>
        <path class="cls-1" d="M136.92,290.86s-.86,3.5,0,4.25"/>
        <path class="cls-1" d="M134.45,293a5.42,5.42,0,0,0,4.19.09"/>
        <ellipse class="cls-12" cx="137.55" cy="226.06" rx="3.09" ry="3.72"/>
        <path class="cls-1" d="M136.92,223.84s-.86,3.5,0,4.25"/>
        <path class="cls-1" d="M134.45,226a5.42,5.42,0,0,0,4.19.09"/>
        <ellipse class="cls-12" cx="226.39" cy="307.71" rx="3.09" ry="3.72"/>
        <path class="cls-1" d="M225.77,305.49s-.86,3.5,0,4.25"/>
        <path class="cls-1" d="M223.3,307.62a5.42,5.42,0,0,0,4.19.09"/>
        <circle class="cls-13" cx="173.25" cy="113.82" r="19.16"/>
        <circle class="cls-14" cx="246.95" cy="113.82" r="19.16"/>
        <line class="cls-15" x1="279.33" y1="73.48" x2="289.51" y2="68.13"/>
        <path class="cls-14" d="M230.47,104s-2.32,12.87,0,18.62"/>
        <path class="cls-14" d="M233.4,100.27s-2.52,23.3,0,27.1"/>
        <path class="cls-14" d="M235.94,98.13s-1.77,27.7-.39,31.09"/>
        <path class="cls-14" d="M238.42,96.66s-1.21,32.8-.5,33.61"/>
        <line class="cls-14" x1="240.95" y1="95.62" x2="240.21" y2="131.76"/>
        <line class="cls-14" x1="243.41" y1="94.99" x2="243.41" y2="132.65"/>
        <line class="cls-14" x1="245.91" y1="94.68" x2="245.91" y2="132.65"/>
        <line class="cls-14" x1="248.55" y1="94.65" x2="248.55" y2="132.91"/>
        <path class="cls-14" d="M250.86,95.05s1.19,30.82,0,37.53"/>
        <path class="cls-14" d="M253,95.62s2.54,26.86,0,36.14"/>
        <path class="cls-14" d="M255.49,96.66s3.57,26.47,0,33.61"/>
        <path class="cls-14" d="M258.72,98.69s3.55,22,0,30.25"/>
        <path class="cls-14" d="M261.37,101.2s4.37,14,1,24"/>
        <path class="cls-14" d="M256.73,97.34s-12.87-2.32-18.62,0"/>
        <path class="cls-14" d="M260.5,100.27s-23.3-2.52-27.1,0"/>
        <path class="cls-14" d="M262.64,102.81s-27.7-1.77-31.09-.39"/>
        <path class="cls-14" d="M264.11,105.28s-32.8-1.21-33.61-.5"/>
        <line class="cls-14" x1="265.15" y1="107.81" x2="229.01" y2="107.07"/>
        <line class="cls-14" x1="265.79" y1="110.27" x2="228.12" y2="110.27"/>
        <line class="cls-14" x1="266.09" y1="112.78" x2="228.12" y2="112.78"/>
        <line class="cls-14" x1="266.12" y1="115.41" x2="227.86" y2="115.41"/>
        <path class="cls-14" d="M265.72,117.72s-30.82,1.19-37.53,0"/>
        <path class="cls-14" d="M265.15,119.82s-26.86,2.54-36.14,0"/>
        <path class="cls-14" d="M264.11,122.35s-26.47,3.57-33.61,0"/>
        <path class="cls-14" d="M262.08,125.58s-22,3.55-30.25,0"/>
        <path class="cls-14" d="M259.57,128.24s-14,4.37-24,1"/>
        <path class="cls-14" d="M156.74,104s-2.32,12.87,0,18.62"/>
        <path class="cls-14" d="M159.67,100.27s-2.52,23.3,0,27.1"/>
        <path class="cls-14" d="M162.21,98.13s-1.77,27.7-.39,31.09"/>
        <path class="cls-14" d="M164.69,96.66s-1.21,32.8-.5,33.61"/>
        <line class="cls-14" x1="167.21" y1="95.62" x2="166.48" y2="131.76"/>
        <line class="cls-14" x1="169.68" y1="94.99" x2="169.68" y2="132.65"/>
        <line class="cls-14" x1="172.18" y1="94.68" x2="172.18" y2="132.65"/>
        <line class="cls-14" x1="174.81" y1="94.65" x2="174.81" y2="132.91"/>
        <path class="cls-14" d="M177.12,95.05s1.19,30.82,0,37.53"/>
        <path class="cls-14" d="M179.22,95.62s2.54,26.86,0,36.14"/>
        <path class="cls-14" d="M181.75,96.66s3.57,26.47,0,33.61"/>
        <path class="cls-14" d="M185,98.69s3.55,22,0,30.25"/>
        <path class="cls-14" d="M187.64,101.2s4.37,14,1,24"/>
        <path class="cls-14" d="M183,97.34s-12.87-2.32-18.62,0"/>
        <path class="cls-14" d="M186.77,100.27s-23.3-2.52-27.1,0"/>
        <path class="cls-14" d="M188.9,102.81s-27.7-1.77-31.09-.39"/>
        <path class="cls-14" d="M190.38,105.28s-32.8-1.21-33.61-.5"/>
        <line class="cls-14" x1="191.42" y1="107.81" x2="155.28" y2="107.07"/>
        <line class="cls-14" x1="192.05" y1="110.27" x2="154.39" y2="110.27"/>
        <line class="cls-14" x1="192.35" y1="112.78" x2="154.39" y2="112.78"/>
        <line class="cls-14" x1="192.38" y1="115.41" x2="154.12" y2="115.41"/>
        <path class="cls-14" d="M192,117.72s-30.82,1.19-37.53,0"/>
        <path class="cls-14" d="M191.42,119.82s-26.86,2.54-36.14,0"/>
        <path class="cls-14" d="M190.38,122.35s-26.47,3.57-33.61,0"/>
        <path class="cls-14" d="M188.34,125.58s-22,3.55-30.25,0"/>
        <path class="cls-14" d="M185.83,128.24s-14,4.37-24,1"/>
        <path d="M187.52,207.95s7.58,4.74,36.9,2.9c0,0-2.75,6.42-4.75,7.17s-5.56,4.32-5.56,4.32-26.58-2.32-26.58-3.94Z"/>
        <path d="M186.42,209.66l-40.25,5.63,64.14,9s-16.4-2.3-22.49-4a2.26,2.26,0,0,1-1.63-2.52A43.48,43.48,0,0,0,186.42,209.66Z"/>
        <path d="M131.39,236.93s-8.66,10.25-12.69,12.68c0,0,4.81,4,2.2,16.51l11.27-5.81.52-21.56Z"/>
        <path d="M113.61,267.21l3-1.82s1-8.48.55-11,1.3-2.89,1.3-2.89a21.18,21.18,0,0,1,1.06,14.89S117.92,269.13,113.61,267.21Z"/>
        <path d="M77.55,286.54s.1-7-.68-9.17c0,0,32.16-14.46,39.29-22.38,0,0,.93,9.61-.73,11.13S77.55,286.54,77.55,286.54Z"/>
        <path d="M76,275s-3.5,3.87-7.53,3.22c0,0,3.16,6.65-.26,16.16l8.5-6.52S78.51,279.79,76,275Z"/>
        <path d="M62,297.58l.13-3.08,2.33-.15,2.84-5.73-1.69-6.52-1.15-1.93s-.56-3.65-3-5.41l1.6-1.21s5.11,4.07,5.54,10.13a104.14,104.14,0,0,1,.19,11Z"/>
        <polygon points="55.51 287.22 57.3 294.25 58.75 295.43 59.34 294.25 57.91 287.22 55.51 287.22"/>
        <polygon points="56.23 286.29 60.09 281.58 57.84 286.88 56.23 286.29"/>
        <path d="M52,287.22c.05.3,3,10.48,4,11.37s5.12-1,5.12-1L56.23,294l-2.87-6.75Z"/>
        <path d="M41.82,278.75s0,15.38,3.14,17.75,8.71,2.46,8.71,2.46a32,32,0,0,1-4-20.2Z"/>
        <path d="M40.09,278.75s-1.1,12.58,1.24,16.17c0,0-4.24-4.89-2.83-16.41Z"/>
        <path d="M49.17,278.25s-4.62-9-4.56-17.93l-12.05-1.08,1.88,18.58S45.24,279.82,49.17,278.25Z"/>
        <path d="M129.6.79s-2.74,3.27,0,8.78c0,0-5.51,1.88-6.3-4.39S129.6.79,129.6.79Z"/>
        <path d="M320.37,1.66s-2.74,3.27,0,8.78c0,0-5.51,1.88-6.3-4.39S320.37,1.66,320.37,1.66Z"/>
        <path d="M34.55,255.12s8.25,1.43,10,.71L44.23,259s-8.08.63-11.32-1.21Z"/>
        <path d="M26.08,203.29s8.32,1,10.89.47c0,0,2.88,31,9.42,50.27a.71.71,0,0,1-.72.89c-2.15.14-8.38.49-10,0Z"/>
        <path d="M23.34,190.58a31.71,31.71,0,0,0,12.12.73s2.13,9.76,2.14,10.86-10.06.7-12.3.54a.58.58,0,0,1-.5-.5A84.18,84.18,0,0,1,23.34,190.58Z"/>
        <path d="M23.55,190s6.84,1.55,10.9.56l-1.06-1.83-8.46-.39Z"/>
        <path d="M24.59,179.8l6.8-1.2s.82,8.39,1.45,9.26a40,40,0,0,1-7.17,0Z"/>
        <path d="M20.34,165.09l1.49,11.57-3.16.41s.72-7.58-1.35-11.59Z"/>
        <path d="M22.36,164.1s2.82,9.84,1.75,15l4.89-.7-2.14-15Z"/>
        <path d="M39.33,160.83l2.14,15.23-3.38.44s0-10.94-2.14-15.23Z"/>
        <polygon points="41.46 162.43 43.02 173.99 46.59 173.53 45.08 161.96 41.46 162.43"/>
        <polygon points="2.26 125.62 5.42 147.37 3.41 125.33 2.26 125.62"/>
        <path d="M13.34,120.58l2.29,26.66c.13.72,3.12-1.72,3.82-1.92l1.66-1.91c.45-.12-.85-3.11-.94-3.57l-4.29-20.17Z"/>
        <path d="M15.87,116.17s.47-1.69,4.31-2.43c0,0,1.9,17.66,4.4,23.83,0,0-4.17,2-3.83,2.17S15.87,116.17,15.87,116.17Z"/>
        <path d="M3.17,119.56a4.46,4.46,0,0,1,3.92-2.43s1.64,26.88,3,28.18c0,0-3.83.77-3.89,1.79Z"/>
        <path d="M25.07,56.06s2,15.21,3.75,20l-5.09-.58-3-19.38Z"/>
        <path d="M30.56,84.49s2,14.86,3.75,19.5l-5.09-.57-3-18.94Z"/>
        <path d="M35.06,147.09a60.9,60.9,0,0,0,19.84.58s2,.91-19.54,4Z"/>
        <path d="M26.7,116.78s4.71,19.76,3.33,23-7.06,1.73-9.61,3.92a74.15,74.15,0,0,1-6.54,4.79s-8.7,1.31-8.72,2.67c-.08,4.75,3.31,15.54,14.08,12.27a73.31,73.31,0,0,1,17.19-3s9.12-6.25,9.37-8.56l-11.48,1.81s-3.75-2.92-2.26-11.21l13-2.71-5.44-25.27Z"/>
        <path d="M293.76,281.91s-2.5,14.75.83,25.33l-16.92-.46V280S289.54,283.08,293.76,281.91Z"/>
        <path d="M281.15,319.27h10.29c.15-6,.48-10.61.48-10.61-3.31.17-10.5-.45-11-.5h0l.28,11.11Z"/>
        <path d="M241.42,287.87s-.47,19.16-2.08,31.4H138.09l-.54,0-1.38-20.62,88.38,14.87s8.18,1.13,8.81-6.25.48-63.79,1.14-68.47-5.35-6.17-5.35-6.17l-89.56-11.5s-3.91-.47-4.3,1.25c0-.26.1-4.82,7.38-5.37l90.22,11.7s4.53.06,7.16,6.47Z"/>
        <path d="M134.45,229a18.52,18.52,0,0,0,2.08,1.66c.32.09,0,1.38,0,1.38s-1.07-.79-1.12,0c0,.47.13,56.22.13,56.22l.63.44L135,289.85S133.61,235.73,134.45,229Z"/>
        <path d="M141,223.47s1.31,2.88,0,5.13a4.26,4.26,0,0,1,3.19,0l79.37,11.25s-.68-4.51,1.94-5.06Z"/>
        <path d="M138.17,230.35c.16,0,85.26,11.28,85.26,11.28l1-.75L142.3,229.16Z"/>
        <polygon points="225.55 241.04 223.43 241.63 222.65 302.66 224.42 301.16 225.55 241.04"/>
        <path d="M226.67,243.58s4.09,1,4.75-3.73l-.83,67.4s-.45-4.58-4.2-4.58-4.22,4.25-4.22,4.25.33,3.58,1.13,3.83L139.92,296.8s2.75-2.72,1.25-5.39l79.75,14.08,5.47-4.25Z"/>
        <polygon points="139.55 232.72 221.25 243.45 220.25 302.66 138.64 289.36 139.55 232.72"/>
        <path d="M198.13,173.75s-4,32.44-1.62,34.21l8.58.14s.58-33.09,1.83-34.35Z"/>
        <path d="M219.21,173.75s-1.93,32.81-.82,34.35h9.52s-.47-32.11,2.56-34.35Z"/>
        <polygon points="207.2 178.79 205.89 197.88 207.9 197.5 207.2 178.79"/>
        <polygon points="205.97 198.75 210.57 198.75 210.57 203.08 205.78 206.95 205.97 198.75"/>
        <polygon points="211.84 198.64 211.84 202.72 217.36 202.5 217.36 198.64 211.84 198.64"/>
        <path d="M208,173.75h10.38s-1.33,23.17-1.06,23.46h-8.73Z"/>
        <path d="M231,182.16a64.74,64.74,0,0,0-.33,10.17h3.9s-1.65-6.79-.19-10.17Z"/>
        <path d="M194.71,204.45s-4.54.71-6.35,2.71c0,0,.69,1.83,7.38,2.67s28.53.5,28.53.5a3.27,3.27,0,0,1,.16-1.54l-6.67-.12s-.58-4.62-.62-4.75-5.5.21-5.5.21l-5.85,4.79-10-.17A10.46,10.46,0,0,1,194.71,204.45Z"/>
        <path d="M268.92,236.63l-10.34,3.22s-14.07,8.72-7.61,30,26.7,20.72,26.7,20.64-.33-2.12-.33-2.12-18.18-.36-16.76-24.95c0,0-2.24-15.9,10.08-26.75Z"/>
        <path d="M242.46,319.27c1-10.41,1.74-24.17,1.74-24.17l-.54-42.61s-1.9-14.39-.27-21c21.53-5.15,20.4.85,20.4.85C248.25,243.91,249,255.85,249,255.85s-2.53,11.62,5,24.5,22.18,12.12,22.18,12.12v16l3.2.75.44,10Z"/>
        <path d="M229.84,167.66s-.42,4.12-4.17,5.37H194.54l-1.38-5.37Z"/>
        <path d="M288.48,90.89l11.54.21s-8.37,15.65,0,42.17c0,0-5.54,2.4-9.43,1.46S282.91,97.11,288.48,90.89Z"/>
        <path d="M131.39,90s-4.55,12.31-4,20.15,3.53,20.15,3.53,20.15H134V90Z"/>
        <path d="M154.09,72.41H143.8s-6.75.5-8.75,8.25v77.5s2,7.81,9.52,8.65h77V156.29l-26.81-.24a1,1,0,0,1-.95-.94l-.12-6.74A1.32,1.32,0,0,1,195,147h26.56l27-11s-13,3.13-20.75-10.37-.87-23-.87-23S231.74,91.2,247,91V72.58l-69.28-.67-3.5,19.18s20.43.57,21.47,21.82S176,136.29,176,136.29s-17.75,3.5-24.75-15.62c0,0-5-17.39,10.13-26,0,0,10.47-4.48,16.22-3.43l0-19.31Z"/>
        <path d="M220.92,156.28h1.37V146.16L248.55,136s16.75-.44,20.25-18.56c0,0,3-12.31-6.81-20.12S247,91,247,91V72.58h25.15s7-.23,8.31,7.65l.38,77.62s-.12,7.12-9.44,9H221.57Z"/>
        <ellipse cx="302.33" cy="112.08" rx="1.26" ry="16.35"/>
        <rect x="195.36" y="149.22" width="25.25" height="1.56"/>
        <rect x="195.43" y="152.6" width="25.25" height="1.56"/>
        <path d="M287.09,91.09l-3.93,5.66a2.24,2.24,0,0,0-.4,1.28v44.62l6.75-7.17S280.76,116.78,287.09,91.09Z"/>
        <path d="M275.17,247.91a23.84,23.84,0,0,0-5.75,17,15.54,15.54,0,0,0,9.75,13.35S272,281.91,269.8,280s-10.87-15.37-1.87-29.88S275.17,247.91,275.17,247.91Z"/>
        <path d="M283.84,248.91s-7.71,3.88-6.5,9.88c0,0-4.52.8-4.08,6.88s3.17,6.25,3.17,6.25.1,3.33,2.11,4.34c0,0-9.29-5.35-7.45-15.31S278.75,245.54,283.84,248.91Z"/>
        <path d="M286.84,247.65s10.84-2.39,16,5.34,1.44,17.18,1.44,17.18l-2.89,2.8s2.79-17.19-.07-17.54-.13-.27-.13-.27-3.19-6-12-5.55-.27-.14-.27-.14Z"/>
      </g>
      <polyline class="cls-16" points="136.06 319.27 138.09 319.27 239.34 319.27 240.65 319.27"/>
      <line class="cls-16" x1="281.15" y1="319.27" x2="281.13" y2="319.27"/>
    </g>
  </g>
</svg>
